<?xml version="1.0" encoding="UTF-8" standalone="no"?>
<!-- Created with Inkscape (http://www.inkscape.org/) -->

<svg
   xmlns:dc="http://purl.org/dc/elements/1.1/"
   xmlns:cc="http://creativecommons.org/ns#"
   xmlns:rdf="http://www.w3.org/1999/02/22-rdf-syntax-ns#"
   xmlns:svg="http://www.w3.org/2000/svg"
   xmlns="http://www.w3.org/2000/svg"
   version="1.1"
   width="256"
   height="256"
   id="svg2"
   xml:space="preserve"><metadata
     id="metadata8"><rdf:RDF><cc:Work
         rdf:about=""><dc:format>image/svg+xml</dc:format><dc:type
           rdf:resource="http://purl.org/dc/dcmitype/StillImage" /><dc:title></dc:title></cc:Work></rdf:RDF></metadata><defs
     id="defs6"><clipPath
       id="clipPath18"><path
         d="M 0,792 612,792 612,0 0,0 0,792 z"
         id="path20" /></clipPath></defs><g
     transform="matrix(1.25,0,0,-1.25,0,256)"
     id="g10"><g
       id="g14"><g
         transform="translate(-198.3504,-449.1545)"
         id="g3255"
         style="fill:#ffffff"><g
           transform="translate(316.4687,560.3966)"
           id="g22"
           style="fill:#ffffff"><path
             d="M 0,0 C 0,1.043 -0.228,1.85 -0.68,2.422 -1.135,2.995 -1.815,3.28 -2.726,3.28 l -2.624,0 0,-33.861 2.624,0 c 1.818,0 2.726,1.091 2.726,3.28 L 0,0 z m -9.184,-34.367 0,41.534 6.458,0 c 2.221,0 3.868,-0.632 4.947,-1.892 C 3.297,4.013 3.834,2.271 3.834,0.052 l 0,-27.353 c 0,-4.711 -2.187,-7.066 -6.56,-7.066 l -6.458,0 z"
             id="path24"
             style="fill:#ffffff;fill-opacity:1;fill-rule:nonzero;stroke:none" /></g><g
           transform="translate(323.737,526.0299)"
           id="g26"
           style="fill:#ffffff"><path
             d="m 0,0 0,41.534 10.999,0 0,-3.887 -7.165,0 0,-14.584 5.047,0 0,-3.835 -5.047,0 0,-15.443 7.418,0 L 11.252,0 0,0 z"
             id="path28"
             style="fill:#ffffff;fill-opacity:1;fill-rule:nonzero;stroke:none" /></g><g
           transform="translate(341.7517,526.0299)"
           id="g30"
           style="fill:#ffffff"><path
             d="m 0,0 -5.147,41.534 3.987,0 c 0.202,-1.716 0.43,-3.677 0.683,-5.88 C -0.228,33.45 0.025,31.163 0.278,28.791 0.53,26.418 0.792,24.055 1.061,21.7 1.329,19.345 1.572,17.158 1.794,15.14 2.012,13.122 2.196,11.355 2.349,9.84 2.499,8.327 2.608,7.25 2.676,6.612 c 0.066,0.672 0.185,1.757 0.353,3.255 0.168,1.495 0.362,3.255 0.58,5.273 0.219,2.018 0.471,4.205 0.758,6.56 0.284,2.355 0.571,4.718 0.858,7.091 0.284,2.372 0.562,4.659 0.833,6.863 0.268,2.203 0.521,4.164 0.755,5.88 l 3.837,0 L 5.147,0 0,0 z"
             id="path32"
             style="fill:#ffffff;fill-opacity:1;fill-rule:nonzero;stroke:none" /></g><g
           transform="translate(363.3506,560.9519)"
           id="g34"
           style="fill:#ffffff"><path
             d="M 0,0 C 0,2.12 -0.908,3.18 -2.726,3.18 -4.508,3.18 -5.4,2.12 -5.4,0 l 0,-28.31 c 0,-2.189 0.892,-3.282 2.674,-3.282 1.818,0 2.726,1.093 2.726,3.282 L 0,0 z m -9.233,0 c 0,4.71 2.168,7.065 6.507,7.065 C 1.647,7.065 3.837,4.71 3.837,0 l 0,-28.31 c 0,-4.712 -2.19,-7.067 -6.563,-7.067 -4.339,0 -6.507,2.355 -6.507,7.067 l 0,28.31 z"
             id="path36"
             style="fill:#ffffff;fill-opacity:1;fill-rule:nonzero;stroke:none" /></g><g
           transform="translate(380.4076,560.0441)"
           id="g38"
           style="fill:#ffffff"><path
             d="m 0,0 c 0,1.245 -0.253,2.162 -0.758,2.75 -0.502,0.588 -1.36,0.883 -2.574,0.883 l -2.623,0 0,-14.181 2.676,0 c 1.108,0 1.935,0.285 2.471,0.859 C -0.268,-9.118 0,-8.193 0,-6.914 L 0,0 z m -9.789,-34.014 0,41.533 6.457,0 c 2.424,0 4.215,-0.597 5.375,-1.792 C 3.204,4.533 3.784,2.623 3.784,0 l 0,-6.813 c 0,-2.625 -0.571,-4.526 -1.716,-5.702 -1.142,-1.179 -2.926,-1.767 -5.347,-1.767 l -2.676,0 0,-19.732 -3.834,0 z"
             id="path40"
             style="fill:#ffffff;fill-opacity:1;fill-rule:nonzero;stroke:none" /></g><g
           transform="translate(395.4464,538.3438)"
           id="g42"
           style="fill:#ffffff"><path
             d="m 0,0 c 0,0.638 -0.019,1.16 -0.05,1.564 -0.034,0.404 -0.103,0.757 -0.203,1.059 -0.1,0.303 -0.237,0.581 -0.402,0.833 -0.172,0.253 -0.371,0.531 -0.608,0.833 -0.503,0.605 -1.008,1.168 -1.513,1.691 -0.506,0.521 -1.027,1.042 -1.563,1.564 -0.54,0.521 -1.086,1.077 -1.641,1.666 -0.555,0.588 -1.135,1.253 -1.741,1.993 -0.673,0.774 -1.07,1.573 -1.188,2.398 -0.116,0.823 -0.175,1.825 -0.175,3.002 l 0,6.208 c 0,4.574 2.153,6.863 6.461,6.863 2.32,0 3.952,-0.563 4.894,-1.691 0.942,-1.128 1.413,-2.851 1.413,-5.172 l 0,-7.571 -3.584,0 0,7.065 c 0,1.042 -0.175,1.885 -0.53,2.524 -0.353,0.638 -1.052,0.959 -2.094,0.959 -1.784,0 -2.673,-0.993 -2.673,-2.977 l 0,-6.158 c 0,-0.875 0.056,-1.513 0.175,-1.917 0.118,-0.404 0.362,-0.842 0.733,-1.313 1.007,-1.279 2.043,-2.405 3.104,-3.38 C -0.128,9.067 0.942,7.939 2.018,6.662 2.389,6.223 2.692,5.787 2.926,5.35 3.16,4.912 3.347,4.44 3.481,3.937 3.615,3.431 3.709,2.859 3.759,2.219 3.809,1.58 3.834,0.858 3.834,0.05 l 0,-5.955 c 0,-2.22 -0.496,-3.92 -1.488,-5.097 -0.992,-1.178 -2.649,-1.767 -4.969,-1.767 -2.256,0 -3.897,0.589 -4.923,1.767 -1.026,1.177 -1.538,2.877 -1.538,5.097 l 0,8.831 3.684,0 0,-8.276 c 0,-1.076 0.194,-1.951 0.58,-2.623 0.387,-0.674 1.086,-1.011 2.094,-1.011 0.976,0 1.675,0.261 2.096,0.783 C -0.212,-7.68 0,-6.914 0,-5.905 L 0,0 z"
             id="path44"
             style="fill:#ffffff;fill-opacity:1;fill-rule:nonzero;stroke:none" /></g><path
           d="m 306.78,471.554 1.139,0 0,-2.068 -1.139,0 0,2.068 z m -0.05,-2.88 1.257,0 0,-13.61 -1.257,0 0,13.61 z"
           id="path46"
           style="fill:#ffffff;fill-opacity:1;fill-rule:nonzero;stroke:none" /><g
           transform="translate(319.9905,459.101)"
           id="g48"
           style="fill:#ffffff"><path
             d="m 0,0 c 0,0.209 -0.003,0.377 -0.016,0.512 -0.009,0.131 -0.034,0.246 -0.065,0.346 -0.034,0.1 -0.078,0.19 -0.134,0.274 -0.053,0.081 -0.119,0.172 -0.197,0.272 -0.165,0.199 -0.33,0.383 -0.496,0.555 -0.165,0.172 -0.337,0.34 -0.514,0.512 C -1.597,2.642 -1.778,2.823 -1.959,3.017 -2.14,3.21 -2.33,3.428 -2.53,3.668 -2.748,3.924 -2.879,4.186 -2.917,4.455 -2.957,4.726 -2.976,5.053 -2.976,5.44 l 0,2.034 c 0,1.497 0.705,2.249 2.118,2.249 0.761,0 1.295,-0.184 1.604,-0.555 C 1.054,8.8 1.207,8.235 1.207,7.474 l 0,-2.48 -1.173,0 0,2.315 c 0,0.34 -0.059,0.617 -0.174,0.826 -0.116,0.209 -0.344,0.316 -0.687,0.316 -0.583,0 -0.876,-0.328 -0.876,-0.977 l 0,-2.018 c 0,-0.287 0.018,-0.496 0.059,-0.627 0.037,-0.134 0.119,-0.278 0.24,-0.431 C -1.073,3.977 -0.736,3.609 -0.387,3.291 -0.041,2.97 0.309,2.602 0.661,2.18 0.783,2.037 0.883,1.893 0.961,1.75 1.039,1.61 1.098,1.454 1.142,1.288 1.185,1.123 1.217,0.936 1.232,0.727 1.251,0.518 1.257,0.281 1.257,0.016 l 0,-1.953 c 0,-0.727 -0.162,-1.282 -0.486,-1.669 -0.325,-0.387 -0.868,-0.58 -1.629,-0.58 -0.739,0 -1.276,0.193 -1.613,0.58 -0.336,0.387 -0.505,0.942 -0.505,1.669 l 0,2.895 1.207,0 0,-2.711 c 0,-0.356 0.063,-0.64 0.191,-0.861 0.127,-0.222 0.355,-0.331 0.686,-0.331 0.321,0 0.549,0.084 0.686,0.256 C -0.069,-2.517 0,-2.268 0,-1.937 L 0,0 z"
             id="path50"
             style="fill:#ffffff;fill-opacity:1;fill-rule:nonzero;stroke:none" /></g><g
           transform="translate(331.1706,455.0644)"
           id="g52"
           style="fill:#ffffff"><path
             d="m 0,0 0,12.337 -1.522,0 0,1.273 4.283,0 0,-1.273 -1.519,0 L 1.242,0 0,0 z"
             id="path54"
             style="fill:#ffffff;fill-opacity:1;fill-rule:nonzero;stroke:none" /></g><g
           transform="translate(345.0957,458.5052)"
           id="g56"
           style="fill:#ffffff"><path
             d="M 0,0 C -0.143,1.167 -0.287,2.324 -0.43,3.463 -0.574,4.604 -0.711,5.777 -0.845,6.978 -0.989,5.777 -1.132,4.604 -1.282,3.463 -1.432,2.324 -1.582,1.167 -1.738,0 L 0,0 z m 0.446,-3.441 -0.299,2.284 -2.034,0 -0.297,-2.284 -1.222,0 1.868,13.61 1.472,0 1.769,-13.61 -1.257,0 z"
             id="path58"
             style="fill:#ffffff;fill-opacity:1;fill-rule:nonzero;stroke:none" /></g><g
           transform="translate(357.9789,455.0644)"
           id="g60"
           style="fill:#ffffff"><path
             d="m 0,0 -2.349,9.939 c 0.013,-1.036 0.016,-2.044 0.016,-3.017 l 0,-3.02 0,-3.902 -1.089,0 0,13.61 1.504,0 2.083,-9.973 C 0.153,4.576 0.15,5.493 0.15,6.392 l 0,2.754 0,4.464 1.107,0 L 1.257,0 0,0 z"
             id="path62"
             style="fill:#ffffff;fill-opacity:1;fill-rule:nonzero;stroke:none" /></g><g
           transform="translate(371.4237,460.3893)"
           id="g64"
           style="fill:#ffffff"><path
             d="M 0,0 C 0,0.387 -0.059,0.664 -0.175,0.836 -0.29,1.008 -0.524,1.092 -0.877,1.092 l -0.926,0 0,-5.175 0.911,0 C -0.299,-4.083 0,-3.731 0,-3.026 L 0,0 z m -0.05,5.971 c 0,0.386 -0.062,0.655 -0.19,0.811 -0.128,0.153 -0.343,0.23 -0.652,0.23 l -0.911,0 0,-4.813 0.926,0 c 0.297,0 0.509,0.072 0.637,0.215 0.128,0.144 0.19,0.375 0.19,0.696 l 0,2.861 z m -3.01,-11.296 0,13.61 2.168,0 c 0.727,0 1.245,-0.181 1.553,-0.546 C 0.97,7.374 1.123,6.782 1.123,5.955 l 0,-2.73 C 1.123,2.377 0.848,1.875 0.296,1.719 0.561,1.666 0.792,1.525 0.992,1.298 1.192,1.073 1.288,0.711 1.288,0.215 l 0,-3.241 c 0,-0.805 -0.181,-1.388 -0.546,-1.753 -0.361,-0.365 -0.907,-0.546 -1.634,-0.546 l -2.168,0 z"
             id="path66"
             style="fill:#ffffff;fill-opacity:1;fill-rule:nonzero;stroke:none" /></g><g
           transform="translate(384.6345,468.6745)"
           id="g68"
           style="fill:#ffffff"><path
             d="m 0,0 1.257,0 0,-11.445 c 0,-1.541 -0.711,-2.315 -2.134,-2.315 -1.422,0 -2.133,0.774 -2.133,2.315 l 0,11.445 1.257,0 0,-11.445 c 0,-0.715 0.293,-1.073 0.876,-1.073 0.584,0 0.877,0.358 0.877,1.073 L 0,0 z"
             id="path70"
             style="fill:#ffffff;fill-opacity:1;fill-rule:nonzero;stroke:none" /></g><g
           transform="translate(395.0034,455.0644)"
           id="g72"
           style="fill:#ffffff"><path
             d="m 0,0 0,13.61 1.257,0 0,-12.368 2.43,0 L 3.687,0 0,0 z"
             id="path74"
             style="fill:#ffffff;fill-opacity:1;fill-rule:nonzero;stroke:none" /></g><g
           transform="translate(348.3274,511.3795)"
           id="g76"
           style="fill:#ffffff"><path
             d="M 0,0 C 0,1.043 -0.228,1.85 -0.68,2.422 -1.135,2.995 -1.815,3.28 -2.726,3.28 l -2.624,0 0,-33.863 2.624,0 c 1.818,0 2.726,1.092 2.726,3.282 L 0,0 z m -9.184,-34.367 0,41.534 6.458,0 c 2.221,0 3.868,-0.632 4.947,-1.892 C 3.297,4.013 3.834,2.271 3.834,0.051 l 0,-27.352 c 0,-4.711 -2.187,-7.066 -6.56,-7.066 l -6.458,0 z"
             id="path78"
             style="fill:#ffffff;fill-opacity:1;fill-rule:nonzero;stroke:none" /></g><g
           transform="translate(364.224,487.5096)"
           id="g80"
           style="fill:#ffffff"><path
             d="M 0,0 C -0.44,3.565 -0.877,7.09 -1.313,10.572 -1.75,14.053 -2.171,17.629 -2.574,21.296 -3.013,17.629 -3.456,14.053 -3.912,10.572 -4.367,7.09 -4.829,3.565 -5.3,0 L 0,0 z m 1.363,-10.497 -0.911,6.963 -6.204,0 -0.911,-6.963 -3.734,0 5.702,41.534 4.492,0 5.4,-41.534 -3.834,0 z"
             id="path82"
             style="fill:#ffffff;fill-opacity:1;fill-rule:nonzero;stroke:none" /></g><g
           transform="translate(374.4682,477.0127)"
           id="g84"
           style="fill:#ffffff"><path
             d="m 0,0 0,18.62 -5.852,22.914 4.037,0 c 0.336,-1.381 0.698,-2.903 1.085,-4.567 0.387,-1.666 0.774,-3.307 1.16,-4.921 0.387,-1.614 0.73,-3.104 1.033,-4.467 0.303,-1.362 0.521,-2.415 0.658,-3.154 0.134,0.739 0.353,1.792 0.655,3.154 0.303,1.363 0.649,2.853 1.036,4.467 0.387,1.614 0.789,3.255 1.21,4.921 0.421,1.664 0.814,3.186 1.186,4.567 l 3.734,0 L 3.887,18.62 3.887,0 0,0 z"
             id="path86"
             style="fill:#ffffff;fill-opacity:1;fill-rule:nonzero;stroke:none" /></g><g
           transform="translate(394.8568,489.3251)"
           id="g88"
           style="fill:#ffffff"><path
             d="m 0,0 c 0,0.639 -0.019,1.16 -0.05,1.566 -0.034,0.402 -0.103,0.755 -0.203,1.057 -0.1,0.303 -0.237,0.581 -0.402,0.833 -0.172,0.253 -0.371,0.531 -0.608,0.833 -0.503,0.605 -1.008,1.17 -1.513,1.691 -0.506,0.521 -1.027,1.042 -1.563,1.566 -0.54,0.521 -1.086,1.076 -1.641,1.666 -0.555,0.586 -1.135,1.251 -1.741,1.993 -0.673,0.774 -1.07,1.572 -1.188,2.397 -0.116,0.824 -0.175,1.825 -0.175,3.003 l 0,6.207 c 0,4.575 2.153,6.863 6.461,6.863 2.32,0 3.952,-0.563 4.894,-1.691 0.942,-1.127 1.413,-2.851 1.413,-5.172 l 0,-7.57 -3.584,0 0,7.065 c 0,1.042 -0.175,1.884 -0.53,2.524 -0.353,0.638 -1.052,0.959 -2.094,0.959 -1.784,0 -2.673,-0.994 -2.673,-2.978 l 0,-6.157 c 0,-0.875 0.056,-1.513 0.175,-1.917 0.118,-0.404 0.362,-0.842 0.733,-1.314 1.007,-1.28 2.043,-2.406 3.104,-3.379 C -0.128,9.068 0.942,7.939 2.018,6.663 2.389,6.223 2.692,5.787 2.926,5.35 3.16,4.913 3.347,4.442 3.481,3.937 3.615,3.431 3.709,2.861 3.759,2.221 3.809,1.582 3.834,0.858 3.834,0.05 l 0,-5.955 c 0,-2.218 -0.496,-3.918 -1.488,-5.097 -0.992,-1.176 -2.649,-1.766 -4.969,-1.766 -2.256,0 -3.897,0.59 -4.923,1.766 -1.026,1.179 -1.538,2.879 -1.538,5.097 l 0,8.831 3.684,0 0,-8.276 c 0,-1.076 0.194,-1.949 0.58,-2.623 0.387,-0.674 1.086,-1.011 2.094,-1.011 0.976,0 1.675,0.262 2.096,0.783 C -0.212,-7.68 0,-6.913 0,-5.905 L 0,0 z"
             id="path90"
             style="fill:#ffffff;fill-opacity:1;fill-rule:nonzero;stroke:none" /></g><g
           transform="translate(289.5158,568.2002)"
           id="g92"
           style="fill:#ffffff"><path
             d="m 0,0 -7.657,0 c -0.021,0.226 -0.072,0.473 -0.072,0.71 0,2.48 -0.011,4.951 0,7.431 0.01,2.213 1.739,3.973 3.859,3.973 2.12,-0.011 3.849,-1.781 3.86,-3.994 C 0.01,5.434 0,2.738 0,0 m -11.949,-0.021 -7.657,0 c 0,1.956 -0.011,3.87 0,5.784 0,0.927 -0.021,1.863 0.051,2.79 0.144,1.986 1.801,3.53 3.757,3.55 1.924,0.031 3.715,-1.379 3.808,-3.344 0.144,-2.903 0.041,-5.816 0.041,-8.78 m -11.826,-0.01 -7.616,0 c -0.031,0.154 -0.103,0.299 -0.103,0.443 0,2.604 -0.031,5.208 0.011,7.811 0.031,2.007 1.543,3.633 3.489,3.87 1.801,0.227 3.612,-1.06 4.116,-2.913 0.042,-0.123 0.103,-0.247 0.103,-0.37 l 0,-8.841 z m -11.825,0.021 -7.74,0 0,4.919 c 0,1.132 -0.02,2.254 0.031,3.376 0.093,2.151 1.657,3.736 3.705,3.818 1.976,0.093 3.87,-1.451 3.973,-3.55 0.144,-2.82 0.031,-5.651 0.031,-8.563 m 37.71,18.062 -37.268,0 c -3.983,0 -7.976,0 -11.969,-0.01 -1.132,0 -1.565,-0.422 -1.606,-1.554 -0.02,-0.288 -0.01,-0.577 -0.01,-0.865 0.01,-1.677 0.36,-2.027 2.038,-2.027 l 1.338,0 0,-16.673 47.271,0 0,16.673 0.237,0 c 0.226,0 0.453,-0.01 0.679,0.01 0.885,0.052 1.389,0.566 1.431,1.472 0.01,0.288 0,0.576 0,0.864 0,1.812 -0.309,2.11 -2.141,2.11"
             id="path94"
             style="fill:#ffffff;fill-opacity:1;fill-rule:nonzero;stroke:none" /></g><g
           transform="translate(286.2326,590.8941)"
           id="g96"
           style="fill:#ffffff"><path
             d="m 0,0 -5.239,0 c 0.062,1.359 0.021,2.738 0.247,4.065 C -4.806,5.228 -3.499,6 -2.367,5.877 -1.153,5.753 -0.103,4.858 -0.021,3.695 0.072,2.491 0,1.266 0,0 m -7.884,-0.01 -5.146,0 c 0,1.276 -0.123,2.532 0.031,3.756 0.165,1.338 1.431,2.234 2.676,2.141 1.369,-0.103 2.398,-1.194 2.439,-2.624 0.021,-1.06 0,-2.121 0,-3.273 m -7.914,0 -5.126,0 c 0,1.296 -0.123,2.583 0.041,3.828 0.155,1.287 1.431,2.162 2.625,2.069 1.317,-0.103 2.367,-1.081 2.449,-2.419 0.073,-1.121 0.011,-2.254 0.011,-3.478 m -7.915,0 -5.125,0 c 0,1.307 -0.124,2.593 0.041,3.839 0.154,1.276 1.441,2.151 2.635,2.058 1.358,-0.103 2.398,-1.153 2.439,-2.532 0.041,-1.091 0.01,-2.182 0.01,-3.365 m -7.884,0 -5.166,0 c 0,1.296 -0.124,2.583 0.031,3.828 0.164,1.287 1.441,2.162 2.645,2.069 1.317,-0.103 2.305,-1.07 2.449,-2.419 0.031,-0.247 0.031,-0.504 0.041,-0.761 l 0,-2.717 z M 6.371,7.06 c 0,1.03 -0.453,1.462 -1.575,1.462 l -7.688,0 c -0.113,0.35 -0.206,0.648 -0.309,0.957 -2.655,7.596 -5.311,15.191 -7.966,22.787 -2.326,6.658 -4.642,13.317 -6.978,19.976 -0.216,0.608 -0.329,1.05 0.36,1.524 0.783,0.545 0.834,1.842 0.289,2.614 -0.608,0.854 -1.627,1.122 -2.563,0.679 -1.585,-0.751 -1.544,-2.583 0.164,-3.849 C -25.092,38.317 -30.269,23.445 -35.487,8.522 l -6.926,0 c -1.133,0 -1.524,-0.432 -1.513,-1.616 0,-0.926 0.37,-1.266 1.513,-1.266 l 0.339,-0.031 0,-7.781 47.271,0 0,7.781 -0.401,0 c 1.163,0 1.575,0.412 1.575,1.451"
             id="path98"
             style="fill:#ffffff;fill-opacity:1;fill-rule:nonzero;stroke:none" /></g><g
           transform="translate(289.5364,550.0245)"
           id="g100"
           style="fill:#ffffff"><path
             d="m 0,0 -2.913,0 c 0.114,1.029 -0.442,2.182 0.649,2.902 0.37,0.237 1.111,0.278 1.492,0.062 C 0.412,2.305 -0.144,1.101 0,0 m -9.026,-17.064 -5.753,0 c 0,1.533 -0.062,3.056 -0.052,4.569 0.01,0.752 0.041,1.503 0.113,2.254 0.144,1.575 1.637,2.46 3.16,2.285 1.379,-0.164 2.48,-1.348 2.522,-2.851 0.01,-0.555 0.02,-1.132 0.03,-1.688 0,-1.502 -0.02,-3.005 -0.02,-4.569 M -23.126,0 c -0.021,1.009 -0.381,2.089 0.566,2.83 0.339,0.268 1.081,0.36 1.472,0.175 1.317,-0.617 0.627,-1.883 0.844,-3.005 l -2.882,0 z m -6.618,-17.054 -5.774,0 c 0,1.534 -0.051,3.046 -0.031,4.559 0,0.68 0.021,1.349 0.062,2.028 0.093,1.513 1.451,2.542 2.923,2.522 1.4,-0.011 2.707,-0.999 2.789,-2.429 0.041,-0.711 0.052,-1.41 0.062,-2.121 0.02,-1.513 -0.031,-3.025 -0.031,-4.559 m -10.673,17.064 -2.943,0 c 0.113,1.029 -0.402,2.162 0.638,2.872 0.36,0.247 1.091,0.298 1.482,0.082 1.163,-0.628 0.73,-1.832 0.823,-2.954 m 9.983,0.031 -2.789,0 c -0.103,2.316 0.309,3.222 1.451,3.18 1.174,-0.041 1.596,-1.019 1.338,-3.18 M -10.086,0 -12.978,0 c 0.123,0.988 -0.453,2.069 0.525,2.83 0.339,0.268 1.08,0.36 1.471,0.175 C -9.726,2.398 -10.169,1.163 -10.086,0 M 43.36,-62.709 c -0.905,0.144 -1.811,0.329 -2.706,0.494 -3.86,0.669 -7.73,1.338 -11.589,2.017 -0.402,0.062 -0.71,0.185 -0.793,0.679 -0.473,2.882 -1.245,5.692 -2.254,8.429 -0.144,0.412 -0.082,0.69 0.268,0.968 1.42,1.173 2.83,2.357 4.23,3.53 2.274,1.904 4.539,3.808 6.803,5.702 0.185,0.175 0.432,0.308 0.504,0.648 -0.113,0.216 -0.237,0.474 -0.381,0.721 -1.502,2.624 -3.015,5.238 -4.528,7.852 -0.535,0.937 -0.535,0.927 -1.554,0.556 -4.395,-1.605 -8.769,-3.19 -13.153,-4.806 -0.464,-0.175 -0.762,-0.165 -1.122,0.267 -1.801,2.182 -3.788,4.189 -5.98,5.98 -0.484,0.401 -0.504,0.741 -0.309,1.287 1.657,4.456 3.283,8.923 4.92,13.39 0.195,0.493 0.113,0.761 -0.381,1.039 -2.789,1.585 -5.578,3.201 -8.357,4.837 -0.504,0.299 -0.803,0.196 -1.163,-0.226 -1.276,-1.544 -2.563,-3.088 -3.86,-4.621 l 0,21.592 0.525,0 c 1.277,0 1.74,0.474 1.75,1.729 l 0,0.103 c 0.01,2.501 -0.113,2.635 -2.583,2.635 l -48.764,0 c -1.153,-0.01 -1.606,-0.453 -1.636,-1.636 -0.011,-0.319 -0.011,-0.638 -0.011,-0.968 0.021,-1.472 0.412,-1.863 1.904,-1.863 l 1.472,0 0,-21.5 c -1.225,1.482 -2.46,2.954 -3.695,4.446 -0.422,0.515 -0.751,0.597 -1.348,0.237 -2.696,-1.595 -5.403,-3.159 -8.131,-4.693 -0.586,-0.34 -0.669,-0.628 -0.442,-1.245 1.646,-4.446 3.262,-8.924 4.899,-13.38 0.175,-0.473 0.154,-0.762 -0.278,-1.122 -2.141,-1.77 -4.127,-3.726 -5.887,-5.877 -0.453,-0.566 -0.813,-0.586 -1.431,-0.36 -4.436,1.637 -8.892,3.242 -13.328,4.879 -0.443,0.164 -0.731,0.195 -1.009,-0.299 -1.595,-2.799 -3.2,-5.599 -4.837,-8.367 -0.319,-0.535 -0.278,-0.844 0.216,-1.256 3.644,-3.015 7.256,-6.072 10.9,-9.098 0.432,-0.36 0.566,-0.669 0.349,-1.214 -0.946,-2.573 -1.667,-5.219 -2.12,-7.925 -0.123,-0.752 -0.442,-0.999 -1.142,-1.112 -4.621,-0.782 -9.232,-1.605 -13.843,-2.398 -0.556,-0.093 -0.751,-0.329 -0.751,-0.906 0.02,-1.595 0.02,-7.842 0.02,-9.448 l 26.893,0 c 0,0.957 0.042,6.556 0.114,7.493 1.461,20.131 18.155,35.713 38.317,35.837 20.481,0.123 37.123,-15.552 38.811,-35.364 0.093,-1.08 0.134,-2.182 0.134,-3.293 l 0,-4.673 26.883,0 c 0,1.668 0,7.987 0.01,9.654 0,0.402 -0.154,0.597 -0.556,0.649"
             id="path102"
             style="fill:#ffffff;fill-opacity:1;fill-rule:nonzero;stroke:none" /></g><g
           transform="translate(251.8678,476.6581)"
           id="g104"
           style="fill:#ffffff"><path
             d="m 0,0 c 0,-9.285 7.527,-16.812 16.812,-16.812 9.284,0 16.811,7.527 16.811,16.812 0,9.285 -7.527,16.812 -16.811,16.812 C 7.527,16.812 0,9.285 0,0"
             id="path106"
             style="fill:#ffffff;fill-opacity:1;fill-rule:nonzero;stroke:none" /></g></g></g></g></svg>